<svg viewBox="0 0 24 24" xmlns="http://www.w3.org/2000/svg" class="icon-space">
  <!-- Profile Icon -->
  <defs>
    <style>
      .icon-path { fill: none; stroke: #06b6d4; stroke-width: 2; stroke-linecap: round; stroke-linejoin: round; }
      .icon-fill { fill: #06b6d4; }
    </style>
  </defs>
  
  <!-- User Profile -->
  <circle cx="12" cy="8" r="4" class="icon-fill"/>
  <path d="M 6 20 Q 6 14 12 14 Q 18 14 18 20" class="icon-path"/>
</svg>

<svg viewBox="0 0 24 24" xmlns="http://www.w3.org/2000/svg" class="icon-space">
  <!-- Booking/Calendar Icon -->
  <defs>
    <style>
      .icon-path { fill: none; stroke: #a855f7; stroke-width: 2; stroke-linecap: round; stroke-linejoin: round; }
      .icon-fill { fill: #a855f7; }
    </style>
  </defs>
  
  <rect x="3" y="4" width="18" height="16" rx="2" class="icon-path"/>
  <path d="M 3 10 L 21 10" class="icon-path"/>
  <path d="M 8 1 L 8 6" class="icon-path"/>
  <path d="M 16 1 L 16 6" class="icon-path"/>
  <circle cx="9" cy="14" r="1.5" class="icon-fill"/>
  <circle cx="12" cy="14" r="1.5" class="icon-fill"/>
  <circle cx="15" cy="14" r="1.5" class="icon-fill"/>
</svg>

<svg viewBox="0 0 24 24" xmlns="http://www.w3.org/2000/svg" class="icon-space">
  <!-- Chat/Message Icon -->
  <defs>
    <style>
      .icon-path { fill: none; stroke: #3b82f6; stroke-width: 2; stroke-linecap: round; stroke-linejoin: round; }
      .icon-fill { fill: #3b82f6; }
    </style>
  </defs>
  
  <path d="M 21 15 A 6 6 0 0 1 15 21 L 3 23 L 5 11 A 6 6 0 0 1 11 5 A 6 6 0 0 1 21 15 Z" class="icon-path"/>
  <circle cx="9" cy="12" r="1" class="icon-fill"/>
  <circle cx="12" cy="12" r="1" class="icon-fill"/>
  <circle cx="15" cy="12" r="1" class="icon-fill"/>
</svg>

<svg viewBox="0 0 24 24" xmlns="http://www.w3.org/2000/svg" class="icon-space">
  <!-- Gallery/Image Icon -->
  <defs>
    <style>
      .icon-path { fill: none; stroke: #ec4899; stroke-width: 2; stroke-linecap: round; stroke-linejoin: round; }
      .icon-fill { fill: #ec4899; }
    </style>
  </defs>
  
  <rect x="3" y="3" width="18" height="18" rx="2" class="icon-path"/>
  <circle cx="8" cy="8" r="2" class="icon-fill"/>
  <path d="M 3 15 L 9 9 L 15 15 L 21 9 L 21 19 A 2 2 0 0 1 19 21 L 5 21 A 2 2 0 0 1 3 19" class="icon-path"/>
</svg>

<svg viewBox="0 0 24 24" xmlns="http://www.w3.org/2000/svg" class="icon-space">
  <!-- Settings/Gear Icon -->
  <defs>
    <style>
      .icon-path { fill: none; stroke: #06b6d4; stroke-width: 2; stroke-linecap: round; stroke-linejoin: round; }
      .icon-fill { fill: #06b6d4; }
    </style>
  </defs>
  
  <circle cx="12" cy="12" r="3" class="icon-path"/>
  <path d="M 12 1 L 13.5 6.5 M 12 23 L 13.5 17.5 M 23 12 L 17.5 13.5 M 1 12 L 6.5 13.5" class="icon-path"/>
  <path d="M 19.1 4.9 L 15.5 8.5 M 4.9 19.1 L 8.5 15.5 M 19.1 19.1 L 15.5 15.5 M 4.9 4.9 L 8.5 8.5" class="icon-path"/>
</svg>

<svg viewBox="0 0 24 24" xmlns="http://www.w3.org/2000/svg" class="icon-space">
  <!-- Notification/Bell Icon -->
  <defs>
    <style>
      .icon-path { fill: none; stroke: #a855f7; stroke-width: 2; stroke-linecap: round; stroke-linejoin: round; }
      .icon-fill { fill: #a855f7; }
    </style>
  </defs>
  
  <path d="M 18 8 A 6 6 0 0 0 6 8 C 6 14 3 16 3 16 L 21 16 C 21 16 18 14 18 8 Z" class="icon-path"/>
  <path d="M 13 20 Q 13 21 12 21 Q 11 21 11 20" class="icon-path"/>
  <circle cx="18" cy="6" r="2.5" class="icon-fill" opacity="0.7"/>
</svg>
